<svg xmlns="http://www.w3.org/2000/svg" version="1.1" xmlns:xlink="http://www.w3.org/1999/xlink" xmlns:svgjs="http://svgjs.dev/svgjs" width="1440" height="560" preserveAspectRatio="none" viewBox="0 0 1440 560"><g mask="url(&quot;#SvgjsMask1512&quot;)" fill="none"><rect width="1440" height="560" x="0" y="0" fill="url(&quot;#SvgjsLinearGradient1513&quot;)"></rect><path d="M983.584,167.718C1000.046,167.342,1015.077,158.907,1023.572,144.802C1032.36,130.211,1033.397,112.563,1026.062,97.19C1017.476,79.194,1003.498,61.985,983.584,60.99C962.329,59.928,942.649,73.546,933.056,92.543C924.257,109.969,929.413,130.501,940.303,146.703C949.892,160.969,966.399,168.11,983.584,167.718" fill="rgba(28, 83, 142, 0.4)" class="triangle-float1"></path><path d="M16.11217503821255 443.45885931700883L-45.28495393107238 514.088176777348 25.344363529266843 575.485305746633 86.74149249855176 504.8559882862938z" fill="rgba(28, 83, 142, 0.4)" class="triangle-float3"></path><path d="M816.9685967650304 577.8476371006321L917.8011231799164 602.9880095332878 905.095418621457 439.169033694631z" fill="rgba(28, 83, 142, 0.4)" class="triangle-float2"></path><path d="M630.7667996196976 311.52499022819126L546.5966245834722 389.865110841948 642.1929231338916 420.92623112794047z" fill="rgba(28, 83, 142, 0.4)" class="triangle-float1"></path><path d="M984.46 461.91 a130.68 130.68 0 1 0 261.36 0 a130.68 130.68 0 1 0 -261.36 0z" fill="rgba(28, 83, 142, 0.4)" class="triangle-float2"></path><path d="M863.447758274404 36.5902974781594L801.1453145208043 119.10470109803586 890.6479245408229 131.68347261829192z" fill="rgba(28, 83, 142, 0.4)" class="triangle-float3"></path><path d="M118.85577548149433 412.2685997246267L274.80728410070657 448.2728424228469 310.81152679892676 292.3213338036347 154.86001817971453 256.3170911054145z" fill="rgba(28, 83, 142, 0.4)" class="triangle-float2"></path><path d="M687.718,421.896C704.103,421.198,717.402,410.157,725.582,395.943C733.739,381.769,736.806,364.62,728.925,350.291C720.784,335.489,704.599,326.457,687.718,327.101C671.807,327.708,659.882,339.629,651.62,353.241C642.937,367.546,636.032,384.616,643.82,399.427C652.019,415.021,670.116,422.646,687.718,421.896" fill="rgba(28, 83, 142, 0.4)" class="triangle-float3"></path><path d="M520.54 91.62 a138.01 138.01 0 1 0 276.02 0 a138.01 138.01 0 1 0 -276.02 0z" fill="rgba(28, 83, 142, 0.4)" class="triangle-float1"></path><path d="M1450.9448692443161 38.05375880288123L1387.920994161208-66.83558339615743 1283.0316519621695-3.8117083130494294 1346.0555270452774 101.07763388598923z" fill="rgba(28, 83, 142, 0.4)" class="triangle-float3"></path><path d="M662.6074625725261 402.516222962324L686.6408462334891 306.1235860065813 590.2482092777465 282.09020234561825 566.2148256167834 378.4828393013609z" fill="rgba(28, 83, 142, 0.4)" class="triangle-float3"></path><path d="M907.996462840127 119.3321297900736L811.5390187395003 234.2856353294507 1022.9499683795042 215.78957389070032z" fill="rgba(28, 83, 142, 0.4)" class="triangle-float3"></path><path d="M1237.395,461.121C1257.637,461.251,1277.556,452.839,1287.9,435.44C1298.458,417.681,1298.063,395.092,1287.039,377.619C1276.67,361.185,1256.823,355.788,1237.395,355.395C1217.059,354.984,1194.89,358.267,1184.146,375.538C1172.94,393.553,1176.794,416.784,1188.002,434.798C1198.566,451.776,1217.399,460.993,1237.395,461.121" fill="rgba(28, 83, 142, 0.4)" class="triangle-float2"></path><path d="M410.193,486.233C463.884,489.401,522.35,477.454,550.479,431.612C579.593,384.164,569.376,322.904,539.061,276.215C511.35,233.536,461.022,213.154,410.193,215.553C363.475,217.758,323.91,246.799,300.798,287.459C277.984,327.596,273.659,376.146,295.919,416.593C318.971,458.479,362.466,483.417,410.193,486.233" fill="rgba(28, 83, 142, 0.4)" class="triangle-float3"></path></g><defs><mask id="SvgjsMask1512"><rect width="1440" height="560" fill="#ffffff"></rect></mask><linearGradient x1="0%" y1="50%" x2="100%" y2="50%" gradientUnits="userSpaceOnUse" id="SvgjsLinearGradient1513"><stop stop-color="#0e2a47" offset="0"></stop><stop stop-color="rgba(232, 238, 246, 1)" offset="1"></stop></linearGradient><style>
                @keyframes float1 {
                    0%{transform: translate(0, 0)}
                    50%{transform: translate(-10px, 0)}
                    100%{transform: translate(0, 0)}
                }

                .triangle-float1 {
                    animation: float1 5s infinite;
                }

                @keyframes float2 {
                    0%{transform: translate(0, 0)}
                    50%{transform: translate(-5px, -5px)}
                    100%{transform: translate(0, 0)}
                }

                .triangle-float2 {
                    animation: float2 4s infinite;
                }

                @keyframes float3 {
                    0%{transform: translate(0, 0)}
                    50%{transform: translate(0, -10px)}
                    100%{transform: translate(0, 0)}
                }

                .triangle-float3 {
                    animation: float3 6s infinite;
                }
            </style></defs></svg>