<svg xmlns="http://www.w3.org/2000/svg" version="1.1" xmlns:xlink="http://www.w3.org/1999/xlink" xmlns:svgjs="http://svgjs.dev/svgjs" width="1200" height="800" preserveAspectRatio="none" viewBox="0 0 1200 800"><g mask="url(&quot;#SvgjsMask1046&quot;)" fill="none"><rect width="1200" height="800" x="0" y="0" fill="rgba(233, 233, 233, 1)"></rect><path d="M924 525L923 972" stroke-width="6" stroke="url(&quot;#SvgjsLinearGradient1047&quot;)" stroke-linecap="round" class="Down"></path><path d="M856 618L855 52" stroke-width="6" stroke="url(&quot;#SvgjsLinearGradient1048&quot;)" stroke-linecap="round" class="Up"></path><path d="M76 298L75 699" stroke-width="6" stroke="url(&quot;#SvgjsLinearGradient1047&quot;)" stroke-linecap="round" class="Down"></path><path d="M133 662L132 879" stroke-width="10" stroke="url(&quot;#SvgjsLinearGradient1048&quot;)" stroke-linecap="round" class="Up"></path><path d="M668 5L667 562" stroke-width="8" stroke="url(&quot;#SvgjsLinearGradient1047&quot;)" stroke-linecap="round" class="Down"></path><path d="M455 548L454 1007" stroke-width="6" stroke="url(&quot;#SvgjsLinearGradient1047&quot;)" stroke-linecap="round" class="Down"></path><path d="M752 572L751 867" stroke-width="8" stroke="url(&quot;#SvgjsLinearGradient1048&quot;)" stroke-linecap="round" class="Up"></path><path d="M1098 500L1097 712" stroke-width="8" stroke="url(&quot;#SvgjsLinearGradient1047&quot;)" stroke-linecap="round" class="Down"></path><path d="M60 522L59 210" stroke-width="10" stroke="url(&quot;#SvgjsLinearGradient1048&quot;)" stroke-linecap="round" class="Up"></path><path d="M43 728L42 364" stroke-width="8" stroke="url(&quot;#SvgjsLinearGradient1047&quot;)" stroke-linecap="round" class="Down"></path><path d="M541 464L540 44" stroke-width="10" stroke="url(&quot;#SvgjsLinearGradient1047&quot;)" stroke-linecap="round" class="Down"></path><path d="M849 560L848 802" stroke-width="8" stroke="url(&quot;#SvgjsLinearGradient1047&quot;)" stroke-linecap="round" class="Down"></path><path d="M452 81L451 415" stroke-width="10" stroke="url(&quot;#SvgjsLinearGradient1047&quot;)" stroke-linecap="round" class="Down"></path><path d="M40 702L39 1136" stroke-width="6" stroke="url(&quot;#SvgjsLinearGradient1047&quot;)" stroke-linecap="round" class="Down"></path><path d="M854 246L853 -204" stroke-width="8" stroke="url(&quot;#SvgjsLinearGradient1047&quot;)" stroke-linecap="round" class="Down"></path><path d="M595 251L594 851" stroke-width="6" stroke="url(&quot;#SvgjsLinearGradient1047&quot;)" stroke-linecap="round" class="Down"></path><path d="M879 675L878 105" stroke-width="10" stroke="url(&quot;#SvgjsLinearGradient1047&quot;)" stroke-linecap="round" class="Down"></path><path d="M961 556L960 867" stroke-width="6" stroke="url(&quot;#SvgjsLinearGradient1047&quot;)" stroke-linecap="round" class="Down"></path><path d="M90 503L89 930" stroke-width="10" stroke="url(&quot;#SvgjsLinearGradient1048&quot;)" stroke-linecap="round" class="Up"></path><path d="M836 294L835 -59" stroke-width="6" stroke="url(&quot;#SvgjsLinearGradient1047&quot;)" stroke-linecap="round" class="Down"></path><path d="M717 731L716 1224" stroke-width="10" stroke="url(&quot;#SvgjsLinearGradient1047&quot;)" stroke-linecap="round" class="Down"></path><path d="M199 441L198 18" stroke-width="8" stroke="url(&quot;#SvgjsLinearGradient1048&quot;)" stroke-linecap="round" class="Up"></path><path d="M1155 118L1154 -95" stroke-width="6" stroke="url(&quot;#SvgjsLinearGradient1047&quot;)" stroke-linecap="round" class="Down"></path><path d="M985 61L984 559" stroke-width="6" stroke="url(&quot;#SvgjsLinearGradient1047&quot;)" stroke-linecap="round" class="Down"></path><path d="M710 446L709 -90" stroke-width="6" stroke="url(&quot;#SvgjsLinearGradient1047&quot;)" stroke-linecap="round" class="Down"></path><path d="M468 660L467 933" stroke-width="8" stroke="url(&quot;#SvgjsLinearGradient1047&quot;)" stroke-linecap="round" class="Down"></path><path d="M933 283L932 9" stroke-width="6" stroke="url(&quot;#SvgjsLinearGradient1048&quot;)" stroke-linecap="round" class="Up"></path><path d="M1127 355L1126 736" stroke-width="8" stroke="url(&quot;#SvgjsLinearGradient1047&quot;)" stroke-linecap="round" class="Down"></path><path d="M533 452L532 71" stroke-width="8" stroke="url(&quot;#SvgjsLinearGradient1047&quot;)" stroke-linecap="round" class="Down"></path><path d="M922 161L921 608" stroke-width="8" stroke="url(&quot;#SvgjsLinearGradient1048&quot;)" stroke-linecap="round" class="Up"></path></g><defs><mask id="SvgjsMask1046"><rect width="1200" height="800" fill="#ffffff"></rect></mask><linearGradient x1="0%" y1="0%" x2="0%" y2="100%" id="SvgjsLinearGradient1047"><stop stop-color="rgba(7, 42, 81, 0)" offset="0"></stop><stop stop-color="rgba(7, 42, 81, 1)" offset="1"></stop></linearGradient><linearGradient x1="0%" y1="100%" x2="0%" y2="0%" id="SvgjsLinearGradient1048"><stop stop-color="rgba(7, 42, 81, 0)" offset="0"></stop><stop stop-color="rgba(7, 42, 81, 1)" offset="1"></stop></linearGradient></defs></svg>