<svg xmlns="http://www.w3.org/2000/svg" version="1.1" xmlns:xlink="http://www.w3.org/1999/xlink" xmlns:svgjs="http://svgjs.dev/svgjs" width="1200" height="800" preserveAspectRatio="none" viewBox="0 0 1200 800"><g mask="url(&quot;#SvgjsMask1055&quot;)" fill="none"><rect width="1200" height="800" x="0" y="0" fill="rgba(233, 233, 233, 1)"></rect><path d="M985 384L411 383" stroke-width="10" stroke="url(&quot;#SvgjsLinearGradient1056&quot;)" stroke-linecap="round" class="Left"></path><path d="M955 430L1742 429" stroke-width="10" stroke="url(&quot;#SvgjsLinearGradient1056&quot;)" stroke-linecap="round" class="Left"></path><path d="M55 157L-472 156" stroke-width="10" stroke="url(&quot;#SvgjsLinearGradient1057&quot;)" stroke-linecap="round" class="Right"></path><path d="M937 62L1823 61" stroke-width="6" stroke="url(&quot;#SvgjsLinearGradient1057&quot;)" stroke-linecap="round" class="Right"></path><path d="M309 510L-170 509" stroke-width="6" stroke="url(&quot;#SvgjsLinearGradient1057&quot;)" stroke-linecap="round" class="Right"></path><path d="M894 474L98 473" stroke-width="8" stroke="url(&quot;#SvgjsLinearGradient1056&quot;)" stroke-linecap="round" class="Left"></path><path d="M409 315L-427 314" stroke-width="8" stroke="url(&quot;#SvgjsLinearGradient1057&quot;)" stroke-linecap="round" class="Right"></path><path d="M490 133L933 132" stroke-width="6" stroke="url(&quot;#SvgjsLinearGradient1057&quot;)" stroke-linecap="round" class="Right"></path><path d="M946 29L614 28" stroke-width="8" stroke="url(&quot;#SvgjsLinearGradient1056&quot;)" stroke-linecap="round" class="Left"></path><path d="M794 499L68 498" stroke-width="10" stroke="url(&quot;#SvgjsLinearGradient1056&quot;)" stroke-linecap="round" class="Left"></path><path d="M1091 170L605 169" stroke-width="6" stroke="url(&quot;#SvgjsLinearGradient1057&quot;)" stroke-linecap="round" class="Right"></path><path d="M191 201L-350 200" stroke-width="8" stroke="url(&quot;#SvgjsLinearGradient1057&quot;)" stroke-linecap="round" class="Right"></path><path d="M744 257L197 256" stroke-width="8" stroke="url(&quot;#SvgjsLinearGradient1057&quot;)" stroke-linecap="round" class="Right"></path><path d="M1006 774L695 773" stroke-width="6" stroke="url(&quot;#SvgjsLinearGradient1057&quot;)" stroke-linecap="round" class="Right"></path><path d="M838 273L1423 272" stroke-width="10" stroke="url(&quot;#SvgjsLinearGradient1056&quot;)" stroke-linecap="round" class="Left"></path><path d="M114 495L804 494" stroke-width="10" stroke="url(&quot;#SvgjsLinearGradient1056&quot;)" stroke-linecap="round" class="Left"></path><path d="M506 553L-123 552" stroke-width="10" stroke="url(&quot;#SvgjsLinearGradient1057&quot;)" stroke-linecap="round" class="Right"></path><path d="M226 675L597 674" stroke-width="10" stroke="url(&quot;#SvgjsLinearGradient1056&quot;)" stroke-linecap="round" class="Left"></path><path d="M838 701L1676 700" stroke-width="10" stroke="url(&quot;#SvgjsLinearGradient1056&quot;)" stroke-linecap="round" class="Left"></path><path d="M362 523L944 522" stroke-width="6" stroke="url(&quot;#SvgjsLinearGradient1056&quot;)" stroke-linecap="round" class="Left"></path></g><defs><mask id="SvgjsMask1055"><rect width="1200" height="800" fill="#ffffff"></rect></mask><linearGradient x1="100%" y1="0%" x2="0%" y2="0%" id="SvgjsLinearGradient1056"><stop stop-color="rgba(7, 42, 81, 0)" offset="0"></stop><stop stop-color="rgba(7, 42, 81, 1)" offset="1"></stop></linearGradient><linearGradient x1="0%" y1="0%" x2="100%" y2="0%" id="SvgjsLinearGradient1057"><stop stop-color="rgba(7, 42, 81, 0)" offset="0"></stop><stop stop-color="rgba(7, 42, 81, 1)" offset="1"></stop></linearGradient></defs></svg>