<svg xmlns="http://www.w3.org/2000/svg" version="1.1" xmlns:xlink="http://www.w3.org/1999/xlink" xmlns:svgjs="http://svgjs.dev/svgjs" width="1440" height="560" preserveAspectRatio="none" viewBox="0 0 1440 560"><g mask="url(&quot;#SvgjsMask1000&quot;)" fill="none"><rect width="1440" height="560" x="0" y="0" fill="#0e2a47"></rect><path d="M0,414.45C77.781,419.96,149.039,376.139,214.55,333.847C279.952,291.626,330.655,234.989,376.003,171.715C430.873,95.155,510.64,21.33,505.952,-72.745C501.233,-167.447,425.933,-245.553,352.239,-305.217C285.505,-359.246,199.523,-378.218,114.434,-389.725C39.101,-399.912,-35.252,-389.859,-107.89,-367.44C-179.689,-345.28,-239.618,-303.826,-301.583,-261.323C-384.47,-204.469,-514.957,-175.545,-532.057,-76.498C-549.025,21.781,-442.336,97.079,-376.376,171.885C-325.939,229.085,-259.969,263.463,-195.867,304.775C-131.67,346.148,-76.183,409.054,0,414.45" fill="#0b2239"></path><path d="M1440 909.117C1536.768 928.327 1630.598 1038.407 1717.797 992.261 1802.327 947.527 1773.55 815.119 1794.115 721.719 1810.159 648.851 1821.042 579.121 1825.166 504.622 1830.339 411.16999999999996 1881.549 301.225 1821.359 229.551 1761.365 158.111 1645.033 183.2 1551.831 179.139 1478.057 175.92399999999998 1406.275 183.493 1336.771 208.43400000000003 1270.518 232.209 1216.8609999999999 275.035 1161.932 319.053 1095.03 372.666 1011.7370000000001 414.092 980.502 493.93399999999997 946.643 580.483 938.246 687.707 986.6800000000001 767.025 1034.607 845.5129999999999 1137.312 866.938 1225.066 894.444 1295.007 916.367 1368.107 894.845 1440 909.117" fill="#113255"></path></g><defs><mask id="SvgjsMask1000"><rect width="1440" height="560" fill="#ffffff"></rect></mask></defs></svg>