<svg xmlns="http://www.w3.org/2000/svg" version="1.1" xmlns:xlink="http://www.w3.org/1999/xlink" xmlns:svgjs="http://svgjs.dev/svgjs" width="1440" height="590" preserveAspectRatio="none" viewBox="0 0 1440 590"><g mask="url(&quot;#SvgjsMask1047&quot;)" fill="none"><rect width="1440" height="590" x="0" y="0" fill="rgba(162, 177, 177, 1)"></rect><path d="M0,403.967C76.811,403.007,146.946,370.278,214.693,334.068C287.63,295.085,375.93,262.541,407.567,186.13C439.096,109.98,406.526,22.329,375.354,-53.968C348.965,-118.558,284.289,-154.606,244.843,-212.158C198.371,-279.961,196.252,-382.598,123.669,-421.179C50.587,-460.025,-42.827,-437.746,-119.097,-405.607C-191.132,-375.252,-238.938,-310.295,-286.566,-248.311C-331.67,-189.613,-370.231,-127.658,-387.908,-55.773C-406.971,21.749,-423.105,105.486,-391.604,178.839C-359.867,252.74,-287.896,299.392,-218.169,339.477C-151.066,378.053,-77.395,404.934,0,403.967" fill="#7d9292"></path><path d="M1440 1057.522C1532.911 1077.8809999999999 1640.769 1077.9479999999999 1717.216 1021.356 1793.0230000000001 965.238 1810.567 860.5450000000001 1830.59 768.377 1847.459 690.727 1832.3319999999999 613.847 1822.884 534.95 1813.186 453.96299999999997 1820.252 367.677 1774.52 300.137 1726.464 229.16500000000002 1648.811 183.017 1567.089 157.175 1484.313 130.99900000000002 1396.302 133.375 1311.937 153.858 1224.577 175.06799999999998 1137.223 208.697 1077.635 276.009 1017.759 343.647 998.308 435.246 983.8969999999999 524.422 969.2719999999999 614.924 944.921 716.245 993.979 793.691 1042.48 870.2570000000001 1153.213 868.721 1231.222 914.865 1305.268 958.665 1355.964 1039.108 1440 1057.522" fill="#c7d0d0"></path></g><defs><mask id="SvgjsMask1047"><rect width="1440" height="610" fill="#ffffff"></rect></mask></defs></svg>