<svg xmlns="http://www.w3.org/2000/svg" version="1.1" xmlns:xlink="http://www.w3.org/1999/xlink" xmlns:svgjs="http://svgjs.dev/svgjs" width="1440" height="590" preserveAspectRatio="none" viewBox="0 0 1440 590"><g mask="url(&quot;#SvgjsMask1038&quot;)" fill="none"><rect width="1440" height="590" x="0" y="0" fill="rgba(21, 67, 96, 1)"></rect><path d="M0,295.95C81.638,313.535,164.4,410.264,235.236,366.035C305.673,322.056,240.259,201.003,273.758,125.021C306.517,50.717,431.177,19.954,423.453,-60.883C415.857,-140.377,296.382,-151.231,241.791,-209.513C190.344,-264.438,185.581,-365.329,114.672,-390.538C44.128,-415.617,-23.831,-346.364,-96.87,-329.91C-176.727,-311.92,-272.026,-342.878,-334.046,-289.452C-396.662,-235.513,-400.304,-141.046,-411.215,-59.124C-422.029,22.065,-443.416,113.882,-396.73,181.18C-350.425,247.929,-256.066,254.441,-178.028,277.017C-119.516,293.944,-59.545,283.124,0,295.95" fill="#11364d"></path><path d="M1440 1249.125C1563.798 1247.589 1674.726 1184.228 1779.654 1118.512 1885.646 1052.129 1991.699 979.308 2048.618 867.947 2106.817 754.083 2118.483 621.62 2098.157 495.371 2078.044 370.44100000000003 2030.8049999999998 243.69799999999998 1934.839 161.22000000000003 1843.5 82.719 1711.251 93.53500000000003 1594.809 62.76999999999998 1482.233 33.027000000000044 1377.045-33.84400000000005 1261.893-16.576000000000022 1139.529 1.7730000000000246 1023.706 65.57799999999997 944.1469999999999 160.341 865.148 254.437 829.816 378.996 826.671 501.817 823.73 616.669 881.851 718.6279999999999 927.148 824.212 973.5799999999999 932.441 1004.2 1051.871 1094.886 1127.008 1190.794 1206.471 1315.46 1250.67 1440 1249.125" fill="#195073"></path></g><defs><mask id="SvgjsMask1038"><rect width="1440" height="590" fill="#ffffff"></rect></mask></defs></svg>